<svg width="44.134644" height="45.000000" viewBox="0 0 44.1346 45" fill="none" xmlns="http://www.w3.org/2000/svg" xmlns:xlink="http://www.w3.org/1999/xlink">
	<desc>
			Created with Pixso.
	</desc>
	<defs/>
	<path id="Vector" d="M0 4.5C0 3.3 0.46 2.16 1.29 1.31C2.12 0.47 3.24 0 4.41 0L39.72 0C40.89 0 42.01 0.47 42.84 1.31C43.66 2.16 44.13 3.3 44.13 4.5L44.13 40.5C44.13 41.69 43.66 42.83 42.84 43.68C42.01 44.52 40.89 45 39.72 45L4.41 45C3.24 45 2.12 44.52 1.29 43.68C0.46 42.83 0 41.69 0 40.5L0 4.5ZM14.71 15L11.76 15L11.76 12L14.71 12L14.71 15ZM11.76 33L11.76 18L14.71 18L14.71 33L11.76 33ZM25 21C23.83 21 22.71 21.47 21.88 22.31C21.06 23.16 20.59 24.3 20.59 25.5L20.59 33L17.65 33L17.65 18L20.59 18L20.59 19.5C21.68 18.66 22.98 18.15 24.34 18.03C25.7 17.9 27.07 18.16 28.29 18.79C29.52 19.41 30.54 20.37 31.26 21.55C31.98 22.74 32.36 24.1 32.36 25.5L32.36 33L29.42 33L29.42 25.5C29.42 24.3 28.95 23.16 28.13 22.31C27.3 21.47 26.18 21 25 21Z" fill="#CEB7FF" fill-opacity="1.000000" fill-rule="evenodd"/>
</svg>
